<svg width="17" height="18" viewBox="0 0 17 18" fill="none" xmlns="http://www.w3.org/2000/svg">
<g clip-path="url(#clip0_673_1405)">
<path d="M5.34803 16.3125C11.7615 16.3125 15.2704 10.6851 15.2704 5.80646C15.2704 5.64825 15.2671 5.48653 15.2605 5.32833C15.9431 4.80566 16.5321 4.15825 17 3.41653C16.3643 3.71601 15.6893 3.9116 14.9982 3.99661C15.7259 3.53474 16.2708 2.80917 16.5318 1.95439C15.8472 2.38398 15.0985 2.68702 14.3179 2.85052C13.7918 2.25873 13.0964 1.8669 12.3389 1.7356C11.5815 1.6043 10.8043 1.74085 10.1276 2.12413C9.45079 2.50742 8.91211 3.11609 8.59481 3.85604C8.27751 4.596 8.19926 5.42602 8.37217 6.21778C6.98593 6.14413 5.62979 5.76284 4.39165 5.09863C3.15352 4.43443 2.06103 3.50214 1.18502 2.3622C0.739783 3.17499 0.60354 4.13679 0.80398 5.05213C1.00442 5.96746 1.5265 6.76765 2.26412 7.29005C1.71036 7.27144 1.16873 7.11357 0.683984 6.8295V6.87521C0.683488 7.72817 0.961986 8.555 1.47214 9.21514C1.98229 9.87528 2.6926 10.328 3.48234 10.4963C2.96937 10.6449 2.43099 10.6666 1.90885 10.5596C2.1317 11.2931 2.56528 11.9347 3.14909 12.3948C3.73289 12.8549 4.43779 13.1105 5.16541 13.126C3.93013 14.1534 2.40421 14.7107 0.833398 14.708C0.554828 14.7076 0.276533 14.6895 0 14.6539C1.59577 15.7379 3.45208 16.3136 5.34803 16.3125Z" fill="black"/>
</g>
<defs>
<clipPath id="clip0_673_1405">
<rect width="17" height="18" fill="white"/>
</clipPath>
</defs>
</svg>
