<svg width="14" height="14" viewBox="0 0 14 14" fill="none" xmlns="http://www.w3.org/2000/svg">
<path d="M12.7054 0.132968L4.75045 0.132964C4.54327 0.132964 4.37547 0.300764 4.37549 0.507915C4.37549 0.715092 4.54329 0.882892 4.75045 0.882867L11.8001 0.88287L0.242656 12.4403C0.0960863 12.5869 0.0960866 12.8241 0.242656 12.9707C0.389227 13.1173 0.626433 13.1173 0.773003 12.9707L12.3305 1.41322L12.3304 8.46287C12.3304 8.67005 12.4982 8.83784 12.7054 8.83782C12.809 8.83782 12.9027 8.79586 12.9706 8.72802C13.0384 8.66018 13.0804 8.56643 13.0804 8.46284L13.0804 0.507894C13.0804 0.300768 12.9126 0.132968 12.7054 0.132968Z" fill="white"/>
<path d="M12.7054 0.132968L4.75045 0.132964C4.54327 0.132964 4.37547 0.300764 4.37549 0.507915C4.37549 0.715092 4.54329 0.882892 4.75045 0.882867L11.8001 0.88287L0.242656 12.4403C0.0960863 12.5869 0.0960866 12.8241 0.242656 12.9707C0.389227 13.1173 0.626433 13.1173 0.773003 12.9707L12.3305 1.41322L12.3304 8.46287C12.3304 8.67005 12.4982 8.83784 12.7054 8.83782C12.809 8.83782 12.9027 8.79586 12.9706 8.72802C13.0384 8.66018 13.0804 8.56643 13.0804 8.46284L13.0804 0.507894C13.0804 0.300768 12.9126 0.132968 12.7054 0.132968Z" stroke="white"/>
</svg>
