<svg width="18" height="18" viewBox="0 0 18 18" fill="none" xmlns="http://www.w3.org/2000/svg">
<path d="M15.7502 3.00007H15.0002V0.749973C15.0002 0.335761 14.6645 0 14.2503 0C13.8361 0 13.5003 0.335765 13.5003 0.749973V3.00007H4.50001V0.749973C4.50001 0.335761 4.16425 0 3.75004 0C3.33583 0 3.00007 0.335765 3.00007 0.749973V3.00007H2.25009C1.00949 3.00007 0 4.00938 0 5.25016V15.7506C0 16.9912 1.00931 18.0007 2.25009 18.0007H15.7499C16.9905 18.0007 18 16.9913 18 15.7506V5.25016C18 4.00955 16.9906 3.00007 15.75 3.00007H15.7502ZM2.25001 4.50019H15.7498C16.1632 4.50019 16.4998 4.83663 16.4998 5.25016V7.12509H1.49986V5.25016C1.49986 4.83645 1.83647 4.50019 2.24983 4.50019H2.25001ZM15.7502 16.5003H2.25001C1.83664 16.5003 1.50003 16.1638 1.50003 15.7503V8.62538H16.5004V15.7503C16.5004 16.1638 16.1638 16.5003 15.7504 16.5003H15.7502Z" fill="#2E2E2E"/>
<path d="M12.75 13.5001H14.2499V15H12.75V13.5001Z" fill="#2E2E2E"/>
<path d="M3.75 13.5001H5.24995V15H3.75V13.5001Z" fill="#2E2E2E"/>
<path d="M6.75 13.5001H8.24995V15H6.75V13.5001Z" fill="#2E2E2E"/>
<path d="M9.75 13.5001H11.2499V15H9.75V13.5001Z" fill="#2E2E2E"/>
<path d="M12.75 10.125H14.2499V11.6249H12.75V10.125Z" fill="#2E2E2E"/>
<path d="M3.75 10.125H5.24995V11.6249H3.75V10.125Z" fill="#2E2E2E"/>
<path d="M6.75 10.125H8.24995V11.6249H6.75V10.125Z" fill="#2E2E2E"/>
<path d="M9.75 10.125H11.2499V11.6249H9.75V10.125Z" fill="#2E2E2E"/>
</svg>
