<svg width="25" height="25" viewBox="0 0 25 25" fill="none" xmlns="http://www.w3.org/2000/svg">
<path d="M22.6904 16.3066L17.3796 15.0832C17.2573 15.0553 17.1294 15.0915 17.0432 15.1805L14.3127 17.9638C12.8222 17.149 11.432 16.0953 10.1696 14.833C8.90729 13.5706 7.85352 12.1777 7.03598 10.6901L9.8221 7.95964C9.9111 7.87064 9.94997 7.74553 9.91939 7.62319L8.69317 2.30968C8.50412 1.48937 7.98968 1 7.31402 1L3.62983 1.00018C2.2647 1.00018 1.12451 2.06515 1.03272 3.42752C0.696267 8.33774 2.97073 13.7432 7.11383 17.886C10.9871 21.762 15.9643 24 20.6077 24C20.9303 24 21.2527 23.9889 21.5724 23.9667C22.9348 23.8721 23.9998 22.7322 23.9998 21.3669L24 17.6855C24 17.0209 23.4968 16.4927 22.6905 16.3064L22.6904 16.3066ZM23.2827 21.3673C23.2827 22.3544 22.5097 23.1829 21.5227 23.2496C16.8181 23.5693 11.6213 21.3784 7.62271 17.3772C3.62433 13.3789 1.42745 8.18215 1.75009 3.47475C1.81679 2.49049 2.64263 1.71754 3.62971 1.71754H7.31389C7.76993 1.71754 7.93946 2.24304 7.99233 2.46818L9.1712 7.58406L6.3379 10.3646C6.22385 10.4759 6.19879 10.6481 6.2712 10.79C7.1387 12.4304 8.27591 13.9625 9.65784 15.3416C11.037 16.7207 12.5663 17.8607 14.2095 18.7281C14.3514 18.8031 14.5237 18.7755 14.635 18.6614L17.4127 15.8282L22.5287 17.007C22.7566 17.0599 23.2823 17.2294 23.2823 17.6882L23.2827 21.3673Z" fill="white" stroke="white"/>
</svg>
