<svg width="17" height="15" viewBox="0 0 17 15" fill="none" xmlns="http://www.w3.org/2000/svg">
<path d="M13.7361 0.478137C10.2578 -0.159379 6.70818 -0.159379 3.22994 0.478137C1.24099 0.93754 0 2.35304 0 4.20001V10.7624C0 12.6375 1.24099 14.0343 3.26411 14.5124L3.26397 14.5125C4.9942 14.8338 6.74549 14.9969 8.49991 15C10.2599 14.9995 12.0167 14.8396 13.753 14.5218C15.725 14.1093 17 12.6467 17 10.7718V4.20945C17 2.34379 15.725 0.881205 13.736 0.478173L13.7361 0.478137ZM11.271 7.92204L7.02082 10.7346C6.95436 10.7793 6.87766 10.802 6.79982 10.8002C6.72611 10.7995 6.6534 10.7802 6.58737 10.744C6.45133 10.6528 6.37008 10.4881 6.37492 10.3127V4.68767C6.3762 4.5188 6.4566 4.36279 6.58737 4.2752C6.7227 4.19516 6.88549 4.19516 7.0208 4.2752L11.271 7.08771C11.3958 7.17544 11.4713 7.32753 11.4713 7.49074C11.4713 7.65412 11.3958 7.80605 11.271 7.89394L11.271 7.92204Z" fill="#2E2E2E"/>
</svg>
