<svg width="20" height="15" viewBox="0 0 20 15" fill="none" xmlns="http://www.w3.org/2000/svg">
<path d="M3.11248 1.00031C2.94814 1.01649 2.82309 1.15219 2.82324 1.31419V6.48091H2.47247C1.66265 6.48091 1 7.13103 1 7.92555V11.9338L1.00014 11.9336C1.00043 12.1069 1.1434 12.2474 1.32008 12.2481H2.25681V13.678C2.25495 13.7626 2.28793 13.8445 2.34831 13.9051C2.40882 13.9657 2.49157 13.9997 2.57804 13.9997C2.66437 13.9997 2.74726 13.9657 2.80763 13.9051C2.86815 13.8445 2.90113 13.7626 2.89927 13.678V12.2481H17.1103V13.678C17.1083 13.7626 17.1413 13.8446 17.2018 13.9052C17.2622 13.9658 17.3451 14 17.4316 14C17.5181 14 17.6008 13.9658 17.6613 13.9052C17.7217 13.8446 17.7547 13.7626 17.7528 13.678V12.2482H18.6801V12.2481C18.8567 12.2474 18.9997 12.1069 19 11.9337V7.92541C19 7.13129 18.3399 6.48077 17.53 6.48077L17.1862 6.48091V1.31419C17.1855 1.1401 17.0412 0.999755 16.8637 1.00032H3.14345C3.13312 0.999895 3.12294 0.999895 3.11262 1.00032L3.11248 1.00031ZM3.46569 1.63031H16.5431V6.48095H14.9595V4.80007C14.9595 4.37301 14.599 4.01877 14.1627 4.01877H10.4772C10.2987 4.01877 10.1345 4.07994 10.0004 4.17936C9.86679 4.07994 9.70287 4.01877 9.52433 4.01877H5.83958C5.40333 4.01877 5.04282 4.37314 5.04282 4.80007V6.48095H3.46551L3.46569 1.63031ZM5.83976 4.64869H9.52451C9.61572 4.64869 9.67881 4.71071 9.67881 4.80001L9.67896 6.48088H5.68546V4.80001C5.68546 4.70987 5.7487 4.64869 5.83976 4.64869H5.83976ZM10.4775 4.64869H14.163C14.2542 4.64869 14.3173 4.70987 14.3173 4.80001V6.48088H10.3216V4.80001C10.3216 4.71071 10.3866 4.64869 10.4778 4.64869H10.4775ZM2.47257 7.11145H17.5302C17.9954 7.11145 18.3578 7.4692 18.3578 7.92538L18.3577 8.6299H1.64285V7.92538C1.64285 7.46962 2.00767 7.11145 2.47286 7.11145H2.47257ZM1.64255 9.25993H18.3577V11.6175H1.64255V9.25993Z" stroke="#FF7C46" stroke-width="0.5"/>
</svg>
