<svg width="20" height="14" viewBox="0 0 20 14" fill="none" xmlns="http://www.w3.org/2000/svg">
<path d="M13.0484 12.6736L13.0483 12.6736C12.9264 12.7955 12.7661 12.8567 12.6065 12.8567C12.4469 12.8567 12.2865 12.7956 12.1646 12.6736L13.0484 12.6736ZM13.0484 12.6736L18.6734 7.0486C18.9175 6.80449 18.9175 6.4089 18.6733 6.16479L13.0483 0.539785M13.0484 12.6736L13.0483 0.539785M13.0483 0.539785C12.8042 0.295676 12.4086 0.295639 12.1645 0.539785M13.0483 0.539785L12.1645 0.539785M12.1645 0.539785C11.9204 0.7839 11.9204 1.17951 12.1646 1.42362L16.7226 5.9817L0.981457 5.9817C0.636104 5.9817 0.356445 6.26136 0.356445 6.60671C0.356445 6.95206 0.636104 7.23172 0.981457 7.23172L16.7226 7.23172L12.1645 11.7898C11.9204 12.0339 11.9204 12.4295 12.1645 12.6736V0.539785Z" fill="white" stroke="white" stroke-width="0.5"/>
</svg>
