<svg width="17" height="17" viewBox="0 0 17 17" fill="none" xmlns="http://www.w3.org/2000/svg">
<path d="M10.9432 14.7234H6.05702C3.26867 14.7234 1.00024 12.4067 1.00024 9.55891C1.00024 9.38249 1.14011 9.23975 1.31276 9.23975H15.6874C15.8601 9.23975 15.9999 9.38248 15.9999 9.55891C15.9999 12.4066 13.7315 14.7234 10.9432 14.7234V14.7234ZM1.636 9.87808C1.79673 12.2256 3.71831 14.085 6.05702 14.085H10.9432C13.2818 14.085 15.2034 12.2257 15.3642 9.87808H1.636Z" stroke="#FF7C46" stroke-width="0.5"/>
<path d="M3.81221 16C3.7535 16 3.69422 15.9832 3.64151 15.9479C3.49699 15.8512 3.45653 15.6536 3.55106 15.5059L4.48857 14.0427C4.58299 13.8954 4.77692 13.8541 4.92109 13.9505C5.0655 14.0471 5.10596 14.2447 5.01155 14.3924L4.07404 15.8556C4.01408 15.9492 3.91411 16 3.81221 16H3.81221Z" stroke="#FF7C46" stroke-width="0.5"/>
<path d="M13.1876 16C13.0857 16 12.9857 15.9492 12.9257 15.8556L11.9882 14.3924C11.8938 14.2447 11.9343 14.0471 12.0788 13.9504C12.223 13.8538 12.4169 13.8956 12.5113 14.0427L13.4488 15.5059C13.5432 15.6536 13.5029 15.8512 13.3584 15.9479C13.3057 15.9831 13.2462 16 13.1876 16H13.1876Z" stroke="#FF7C46" stroke-width="0.5"/>
<path d="M1.31251 9.87806C1.13988 9.87806 1 9.73532 1 9.55889V2.11732C1 1.50124 1.49068 1 2.09391 1C2.69691 1 3.18758 1.50112 3.18758 2.11732C3.18758 2.29374 3.04771 2.43648 2.87507 2.43648C2.70243 2.43648 2.56256 2.29375 2.56256 2.11732C2.56256 1.85304 2.3523 1.6383 2.09388 1.6383C1.83533 1.6383 1.62497 1.85304 1.62497 2.11732V9.55889C1.62497 9.73531 1.4851 9.87806 1.31245 9.87806H1.31251Z" stroke="#FF7C46" stroke-width="0.5"/>
<path d="M3.279 4.81374C3.19909 4.81374 3.11907 4.7826 3.05809 4.7202L2.61604 4.26895C2.321 3.96763 2.15845 3.56709 2.15845 3.14076C2.15833 2.71441 2.32088 2.31366 2.61604 2.01221C3.22563 1.39048 4.21685 1.39012 4.82574 2.01221L5.26778 2.46379C5.38963 2.58846 5.38963 2.79045 5.26755 2.91512L3.4999 4.72029C3.43881 4.78257 3.3589 4.81371 3.27899 4.81371L3.279 4.81374ZM3.72093 2.18365C3.48075 2.18365 3.24055 2.27719 3.05783 2.46356C2.88079 2.64438 2.78331 2.88494 2.78331 3.14078C2.78331 3.39661 2.88079 3.63692 3.05783 3.81775L3.27898 4.04337L4.60479 2.68954L4.38365 2.46357C4.20093 2.27685 3.96099 2.18366 3.7209 2.18366L3.72093 2.18365Z" stroke="#FF7C46" stroke-width="0.5"/>
</svg>
