<svg width="25" height="25" viewBox="0 0 25 25" fill="none" xmlns="http://www.w3.org/2000/svg">
<path d="M24.9997 10.389C25.0003 10.1549 24.8959 9.93303 24.7151 9.78437L20.2977 6.16479V3.71142C20.2977 3.50434 20.2153 3.30565 20.0688 3.15915C19.9223 3.01264 19.7236 2.93027 19.5165 2.93027H16.3527L12.9946 0.177244C12.8549 0.0627146 12.68 0 12.4993 0C12.3187 0 12.1438 0.0627146 12.0041 0.177244L8.64564 2.9299H5.20878C5.00152 2.9299 4.80282 3.01227 4.65632 3.15878C4.50981 3.30529 4.42743 3.50398 4.42743 3.71123V6.3865L0.284643 9.78432C0.103466 9.93351 -0.00106221 10.1563 8.14055e-06 10.3909V22.5153C0.000722848 23.1741 0.262842 23.8055 0.728667 24.2714C1.1945 24.7372 1.82591 24.9993 2.48472 25H22.5153C23.1741 24.9993 23.8057 24.7372 24.2715 24.2714C24.7374 23.8055 24.9993 23.1741 25 22.5153V10.4143V10.4012V10.3892L24.9997 10.389ZM22.9859 10.389L20.2977 12.5881V8.18524L22.9859 10.389ZM12.4992 1.79165L13.8879 2.93017H11.1105L12.4992 1.79165ZM18.7361 4.49266V13.8667L12.5646 18.9201L5.99025 13.5996V4.49221L18.7361 4.49266ZM4.42727 8.40845V12.336L2.01693 10.3846L4.42727 8.40845ZM22.5147 23.4383H2.48327C2.23866 23.4381 2.00422 23.3409 1.83145 23.1679C1.6585 22.9952 1.5613 22.7608 1.56111 22.5161V12.0256L12.0761 20.5351L12.0759 20.5353C12.2157 20.6482 12.3901 20.7097 12.5696 20.7092C12.7492 20.7086 12.9232 20.6463 13.0623 20.5325L23.4373 12.038V22.5162C23.4371 22.7608 23.3399 22.9953 23.167 23.168C22.9942 23.341 22.7598 23.4382 22.5151 23.4384L22.5147 23.4383ZM6.33194 20.5163C6.33194 20.7235 6.24957 20.9222 6.10305 21.0687C5.95654 21.2152 5.75785 21.2976 5.55059 21.2976H3.43739C3.15829 21.2976 2.90029 21.1486 2.76074 20.9068C2.62119 20.6653 2.62119 20.3674 2.76074 20.1257C2.90029 19.8839 3.15829 19.7351 3.43739 19.7351H5.55059C5.75785 19.7351 5.95654 19.8173 6.10305 19.9638C6.24957 20.1103 6.33194 20.309 6.33194 20.5162V20.5163Z" fill="white"/>
</svg>
