<svg width="23" height="21" viewBox="0 0 23 21" fill="none" xmlns="http://www.w3.org/2000/svg">
<path d="M18.1362 5.72754H4.77289C4.43188 5.72754 4.11675 5.90955 3.94624 6.20487C3.77573 6.50018 3.77573 6.86403 3.94624 7.15936C4.11675 7.45467 4.43187 7.63668 4.77289 7.63668H18.1362C18.4772 7.63668 18.7924 7.45467 18.9629 7.15936C19.1334 6.86404 19.1334 6.50019 18.9629 6.20487C18.7924 5.90955 18.4773 5.72754 18.1362 5.72754Z" fill="white"/>
<path d="M18.1361 0H4.77278C3.5073 0.00159803 2.29426 0.504817 1.39954 1.39954C0.504817 2.29426 0.00143182 3.50746 0 4.77277V14.3181C0.000798994 15.0773 0.302821 15.8052 0.839576 16.3421C1.37651 16.8789 2.1044 17.1809 2.86363 17.1817C3.21663 17.18 3.56629 17.1122 3.8945 16.9821C4.07268 18.1004 4.64318 19.1188 5.5037 19.8549C6.36405 20.5911 7.45854 20.997 8.5909 21H14.3182C15.4505 20.997 16.545 20.5911 17.4054 19.8549C18.2659 19.1188 18.8364 18.1004 19.0146 16.9821C19.3428 17.1122 19.6924 17.18 20.0454 17.1817C20.8047 17.1809 21.5326 16.8789 22.0695 16.3421C22.6062 15.8052 22.9083 15.0773 22.9091 14.3181V4.77277C22.9076 3.50746 22.4042 2.29426 21.5095 1.39954C20.6148 0.504817 19.4018 0.00159545 18.1363 0H18.1361ZM17.1816 16.2274C17.1808 16.9866 16.8788 17.7145 16.3421 18.2514C15.8051 18.7882 15.0772 19.0902 14.318 19.091H8.59073C7.8315 19.0902 7.10361 18.7882 6.56668 18.2514C6.02991 17.7145 5.72788 16.9866 5.7271 16.2274V12.4093C5.72742 12.1561 5.8281 11.9136 6.00707 11.7346C6.18605 11.5556 6.42864 11.4549 6.68158 11.4546H16.2273C16.4803 11.4549 16.7228 11.5556 16.9018 11.7346C17.0808 11.9136 17.1815 12.1562 17.1818 12.4093L17.1816 16.2274ZM20.9998 14.3182C20.9998 14.6593 20.8179 14.9744 20.5226 15.1449C20.2273 15.3154 19.8633 15.3154 19.5679 15.1449C19.2726 14.9744 19.0908 14.6593 19.0908 14.3182V12.4093C19.0898 11.65 18.788 10.9221 18.251 10.3852C17.7143 9.84844 16.9864 9.54641 16.2271 9.54563H6.68143C5.9222 9.54643 5.1943 9.84845 4.65753 10.3852C4.1206 10.9221 3.81874 11.65 3.81779 12.4093V14.3184V14.3182C3.81779 14.6593 3.63594 14.9744 3.34063 15.1449C3.04532 15.3154 2.6813 15.3154 2.38598 15.1449C2.09066 14.9744 1.90882 14.6593 1.90882 14.3182V4.77294C1.90961 4.01371 2.21164 3.28582 2.74839 2.74889C3.28532 2.21212 4.01322 1.91009 4.77245 1.90931H18.1358C18.895 1.91011 19.6229 2.21213 20.1598 2.74889C20.6966 3.28582 20.9986 4.01371 20.9994 4.77294L20.9998 14.3182Z" fill="white"/>
</svg>
