<svg width="14" height="21" viewBox="0 0 14 21" fill="none" xmlns="http://www.w3.org/2000/svg">
<path d="M13.9945 7.12853C14.0331 6.19237 13.8689 5.25867 13.5124 4.3871C13.1559 3.51554 12.6151 2.72536 11.9244 2.06685C11.2856 1.42569 10.5217 0.913004 9.67633 0.558164C8.83118 0.203487 7.9216 0.0136157 7 0C6.0784 0.0136058 5.16881 0.203468 4.32366 0.558164C3.47835 0.912996 2.71442 1.42569 2.07558 2.06685C1.38487 2.72536 0.844143 3.51558 0.487627 4.3871C0.131135 5.25867 -0.0330786 6.19233 0.00551806 7.12853C0.094602 9.02143 0.799108 10.8392 2.01935 12.3239L3.7217 14.4515C3.08193 14.6531 2.4803 14.9532 1.94019 15.3405C1.12466 15.9472 0.693818 16.6856 0.693818 17.4774C0.693818 18.4976 1.40775 19.4231 2.70474 20.0835C4.04131 20.7122 5.51343 21.0257 7 20.9983C8.48701 21.0259 9.95943 20.7123 11.2965 20.0835C12.5935 19.4231 13.3074 18.4969 13.3074 17.4774C13.3074 16.6854 12.8766 15.9466 12.061 15.3405H12.0609C11.5208 14.9532 10.9191 14.6531 10.2795 14.4515L11.9819 12.3239C13.2016 10.839 13.9058 9.02123 13.9944 7.12853H13.9945ZM11.9473 17.4772C11.9473 18.5218 9.91636 19.6859 6.99992 19.6859C4.08347 19.6859 2.05249 18.5218 2.05249 17.4772C2.05249 16.7211 3.08414 15.9607 4.60832 15.5615L6.46161 17.878V17.8782C6.59027 18.0391 6.78911 18.1333 6.99979 18.1333C7.21048 18.1333 7.40932 18.0391 7.53797 17.8782L9.39127 15.5619C10.9167 15.961 11.9471 16.721 11.9471 17.4772L11.9473 17.4772ZM6.99992 16.4033L3.09468 11.5215C0.813299 8.66979 0.789756 5.16324 3.03717 2.99462C4.073 1.94681 5.49943 1.34123 6.9999 1.31198C8.50037 1.3412 9.92681 1.94681 10.9626 2.99462C13.2112 5.16443 13.187 8.66967 10.9051 11.5215L6.99992 16.4033ZM6.99992 3.77594C6.03217 3.77579 5.10384 4.1467 4.41956 4.80705C3.73524 5.46741 3.35071 6.36304 3.35071 7.29706C3.35071 8.23093 3.73508 9.12659 4.4194 9.78691C5.10388 10.4474 6.03201 10.8183 6.99975 10.8183C7.9675 10.8183 8.89566 10.4473 9.57994 9.78691C10.2643 9.12639 10.6488 8.23077 10.6486 7.2969C10.6475 6.36336 10.2628 5.46848 9.57883 4.80828C8.89468 4.14823 7.96733 3.77685 6.99992 3.77594ZM6.99992 9.50562C6.39283 9.50562 5.8106 9.27308 5.38136 8.85887C4.95196 8.44466 4.71082 7.88281 4.71066 7.29698C4.71066 6.71115 4.95179 6.14931 5.38103 5.73494C5.81027 5.32073 6.3925 5.08803 6.99959 5.08803C7.60667 5.08788 8.18891 5.32072 8.61814 5.73494C9.04738 6.14915 9.28868 6.71099 9.28868 7.29682C9.28804 7.88234 9.04659 8.44375 8.61753 8.85792C8.18845 9.27197 7.60667 9.50498 6.99992 9.50558V9.50562Z" fill="#2E2E2E"/>
</svg>
