<svg width="19" height="13" viewBox="0 0 19 13" fill="none" xmlns="http://www.w3.org/2000/svg">
<path d="M18.4966 6.34156L12.8716 0.716562C12.7251 0.570065 12.4878 0.570065 12.3413 0.716562C12.1948 0.863058 12.1948 1.10036 12.3413 1.24682L17.3262 6.2317L0.981457 6.2317C0.774176 6.2317 0.606445 6.39943 0.606445 6.60671C0.606445 6.81399 0.774176 6.98172 0.981457 6.98172L17.3262 6.98172L12.3413 11.9666C12.1948 12.1131 12.1948 12.3504 12.3413 12.4968C12.4145 12.5701 12.5105 12.6067 12.6065 12.6067C12.7024 12.6067 12.7983 12.5701 12.8716 12.4968L18.4966 6.87182C18.6431 6.72536 18.6431 6.48806 18.4966 6.34156Z" fill="white"/>
<path d="M18.4966 6.34156L12.8716 0.716562C12.7251 0.570065 12.4878 0.570065 12.3413 0.716562C12.1948 0.863058 12.1948 1.10036 12.3413 1.24682L17.3262 6.2317L0.981457 6.2317C0.774176 6.2317 0.606445 6.39943 0.606445 6.60671C0.606445 6.81399 0.774176 6.98172 0.981457 6.98172L17.3262 6.98172L12.3413 11.9666C12.1948 12.1131 12.1948 12.3504 12.3413 12.4968C12.4145 12.5701 12.5105 12.6067 12.6065 12.6067C12.7024 12.6067 12.7983 12.5701 12.8716 12.4968L18.4966 6.87182C18.6431 6.72536 18.6431 6.48806 18.4966 6.34156Z" stroke="white"/>
</svg>
