<svg width="38" height="38" viewBox="0 0 38 38" fill="none" xmlns="http://www.w3.org/2000/svg">
<path d="M18.62 1C8.9 1 1 8.91 1 18.62C1 21.86 1.88 25.01 3.56 27.76L1.04 35.32C0.96 35.57 1.02 35.85 1.21 36.04C1.34 36.17 1.53 36.24 1.71 36.24C1.79 36.24 1.86 36.23 1.94 36.2L9.5 33.68C12.26 35.35 15.41 36.23 18.64 36.23C28.36 36.23 36.26 28.33 36.26 18.61C36.24 8.91 28.34 1 18.62 1Z" fill="#67D449" stroke="white" stroke-width="2" stroke-miterlimit="10"/>
<path d="M25.57 21.66L22.54 20.52C21.95 20.3 21.27 20.43 20.81 20.87L20.3 21.35C20.08 21.56 19.74 21.59 19.49 21.43C17.67 20.21 16.43 18.62 15.85 17.77C15.67 17.51 15.7 17.17 15.92 16.94L16.39 16.44C16.83 15.98 16.96 15.3 16.74 14.71L15.6 11.68C15.36 11.03 14.73 10.6 14.05 10.6H13.57C13.13 10.6 12.7 10.78 12.39 11.09L11.1 12.39C10.77 12.72 10.6 13.17 10.62 13.62C10.92 20.62 16.64 26.34 23.65 26.64H23.72C24.15 26.64 24.57 26.47 24.88 26.16L26.18 24.87C26.49 24.56 26.67 24.13 26.67 23.69V23.22C26.65 22.53 26.21 21.91 25.57 21.66Z" fill="white"/>
</svg>
