<svg width="24" height="24" viewBox="0 0 24 24" fill="none" xmlns="http://www.w3.org/2000/svg">
<path d="M15.071 19.0995L15.1403 19.2991L15.3487 19.264L15.3921 19.2566L15.5073 19.25H22.5002C23.0065 19.25 23.4168 19.6604 23.4168 20.1667C23.4168 20.6343 23.0665 21.0204 22.6142 21.0764L22.493 21.0833H15.5002C15.4483 21.0833 15.3971 21.079 15.3473 21.0707L15.1395 21.0364L15.0703 21.2353C14.6293 22.5049 13.421 23.4167 12.0002 23.4167C10.5794 23.4167 9.37108 22.5049 8.92935 21.2339L8.85999 21.0343L8.65165 21.0694L8.6082 21.0767L8.49302 21.0833H1.50017C0.993868 21.0833 0.583504 20.673 0.583504 20.1667C0.583504 19.6991 0.933827 19.3129 1.38614 19.257L1.50731 19.25H8.50015C8.55208 19.25 8.60322 19.2544 8.65304 19.2626L8.86087 19.297L8.92999 19.098C9.37104 17.8285 10.5794 16.9167 12.0002 16.9167C13.4209 16.9167 14.6293 17.8284 15.071 19.0995ZM0.583496 12C0.583496 10.208 2.0339 8.75472 3.82478 8.75002H3.8335C5.25421 8.75002 6.46259 9.66175 6.90432 10.9328L6.97367 11.1324L7.18202 11.0973L7.22545 11.09L7.34067 11.0834H22.5002C23.0065 11.0834 23.4168 11.4937 23.4168 12C23.4168 12.4676 23.0665 12.8538 22.6142 12.9097L22.493 12.9167H7.33351C7.28159 12.9167 7.23045 12.9123 7.18062 12.9041L6.9728 12.8697L6.90367 13.0687C6.46263 14.3382 5.25431 15.25 3.8335 15.25C2.03861 15.25 0.583496 13.7949 0.583496 12ZM19.7376 2.76616L19.807 2.96574L20.0154 2.93062L20.0588 2.92329L20.174 2.91668H22.5002C23.0065 2.91668 23.4168 3.32704 23.4168 3.83335C23.4168 4.30093 23.0665 4.68709 22.6142 4.74303L22.493 4.74999H20.1668C20.1149 4.74999 20.0638 4.74563 20.014 4.73739L19.8061 4.70302L19.737 4.902C19.296 6.17154 18.0876 7.08334 16.6668 7.08334C15.2461 7.08334 14.0377 6.1716 13.596 4.90052L13.5267 4.70094L13.3183 4.73606L13.2749 4.74338L13.1597 4.75H1.50017C0.993867 4.75 0.583504 4.33964 0.583504 3.83333C0.583504 3.36575 0.933821 2.9796 1.38613 2.92364L1.50733 2.91669H13.1668C13.2187 2.91669 13.2699 2.92105 13.3197 2.92929L13.5275 2.96366L13.5967 2.76468C14.0377 1.49514 15.246 0.583344 16.6668 0.583344C18.0875 0.583344 19.2959 1.49508 19.7376 2.76616ZM12.0002 18.75C11.2177 18.75 10.5835 19.3842 10.5835 20.1667C10.5835 20.9491 11.2177 21.5834 12.0002 21.5834C12.7826 21.5834 13.4168 20.9491 13.4168 20.1667C13.4168 19.3842 12.7826 18.75 12.0002 18.75ZM3.8335 10.5833C3.05106 10.5833 2.41684 11.2176 2.41684 12C2.41684 12.7825 3.05106 13.4167 3.8335 13.4167C4.61595 13.4167 5.25017 12.7825 5.25017 12C5.25017 11.2176 4.61595 10.5833 3.8335 10.5833ZM16.6668 2.41668C15.8844 2.41668 15.2502 3.0509 15.2502 3.83335C15.2502 4.61579 15.8844 5.25001 16.6668 5.25001C17.4493 5.25001 18.0835 4.61579 18.0835 3.83335C18.0835 3.0509 17.4493 2.41668 16.6668 2.41668Z" fill="white" stroke="#DCDCDC" stroke-width="0.5"/>
</svg>
