<svg width="16" height="24" viewBox="0 0 16 24" fill="none" xmlns="http://www.w3.org/2000/svg">
<path d="M15.9937 8.14689C16.0378 7.07699 15.8501 6.0099 15.4427 5.01383C15.0353 4.01776 14.4173 3.11469 13.6279 2.36212C12.8978 1.62936 12.0248 1.04343 11.0587 0.637902C10.0928 0.232557 9.05326 0.0155608 8 0C6.94674 0.0155495 5.90721 0.232534 4.94133 0.637902C3.97526 1.04342 3.10219 1.62936 2.3721 2.36212C1.5827 3.11469 0.964735 4.01781 0.557288 5.01383C0.149869 6.0099 -0.0378041 7.07695 0.00630636 8.14689C0.108117 10.3102 0.913266 12.3877 2.30783 14.0844L4.25338 16.516C3.5222 16.7464 2.83462 17.0894 2.21736 17.532C1.28532 18.2254 0.792935 19.0693 0.792935 19.9741C0.792935 21.1402 1.60886 22.1979 3.09113 22.9526C4.61863 23.671 6.30107 24.0294 8 23.9981C9.69944 24.0295 11.3822 23.6712 12.9103 22.9526C14.3925 22.1979 15.2085 21.1393 15.2085 19.9741C15.2085 19.0691 14.7161 18.2246 13.784 17.532H13.7839C13.1666 17.0894 12.479 16.7464 11.748 16.516L13.6936 14.0844C15.0876 12.3874 15.8923 10.31 15.9936 8.14689H15.9937ZM13.6541 19.974C13.6541 21.1678 11.333 22.4982 7.9999 22.4982C4.66682 22.4982 2.34571 21.1678 2.34571 19.974C2.34571 19.1098 3.52473 18.2408 5.26665 17.7845L7.3847 20.432V20.4322C7.53174 20.6161 7.75898 20.7237 7.99976 20.7237C8.24055 20.7237 8.46779 20.6161 8.61483 20.4322L10.7329 17.785C12.4762 18.2411 13.6538 19.1097 13.6538 19.974L13.6541 19.974ZM7.9999 18.7466L3.53678 13.1674C0.929485 9.90834 0.902578 5.90084 3.47105 3.42243C4.65486 2.22492 6.28507 1.53283 7.99989 1.4994C9.71471 1.5328 11.3449 2.22492 12.5287 3.42243C15.0985 5.9022 15.0708 9.9082 12.463 13.1674L7.9999 18.7466ZM7.9999 4.31536C6.89391 4.31518 5.83296 4.73909 5.05093 5.49378C4.26885 6.24847 3.82938 7.27205 3.82938 8.3395C3.82938 9.40677 4.26866 10.4304 5.05074 11.185C5.83301 11.9399 6.89372 12.3638 7.99972 12.3638C9.10571 12.3638 10.1665 11.9397 10.9485 11.185C11.7306 10.4302 12.17 9.40659 12.1699 8.33932C12.1686 7.27241 11.7289 6.24969 10.9472 5.49518C10.1653 4.74084 9.10552 4.3164 7.9999 4.31536ZM7.9999 10.8636C7.30609 10.8636 6.64068 10.5978 6.15013 10.1244C5.65938 9.65104 5.38379 9.00893 5.38361 8.33941C5.38361 7.66989 5.65919 7.02778 6.14975 6.55422C6.64031 6.08083 7.30572 5.8149 7.99953 5.8149C8.69334 5.81472 9.35875 6.08083 9.84931 6.55422C10.3399 7.0276 10.6156 7.66971 10.6156 8.33923C10.6149 9.00839 10.339 9.65 9.8486 10.1233C9.35823 10.5965 8.69334 10.8628 7.9999 10.8635V10.8636Z" fill="white"/>
</svg>
