<?xml version="1.0" encoding="utf-8"?>
<!-- Generator: Adobe Illustrator 25.2.1, SVG Export Plug-In . SVG Version: 6.00 Build 0)  -->
<svg xmlns="http://www.w3.org/2000/svg" xmlns:xlink="http://www.w3.org/1999/xlink" version="1.1" id="Layer_1" x="0px" y="0px" viewBox="0 0 1080 554.6" style="enable-background:new 0 0 1080 554.6;" xml:space="preserve">
<style type="text/css">
	.st0{fill:#2E2E2E;}
	.st1{fill:none;stroke:#2E2E2E;stroke-width:5;stroke-miterlimit:10;}
	.st2{fill:#F47B49;}
	.st3{fill:#FFFFFF;}
	.st4{font-family:'Didot-HTF-L06-Light';}
	.st5{font-size:66px;}
	.st6{fill:none;stroke:#FFFFFF;stroke-width:5;stroke-miterlimit:10;}
</style>
<g>
	<g>
		<path class="st0" d="M173,310.1c-4.7,13.3-11.2,24.8-19.4,34.7c-8.2,9.9-17.8,17.7-28.7,23.4c-10.9,5.8-22.6,8.6-35.2,8.6H0.3    c-0.2-1.4-0.3-2.6-0.3-3.4c0-1,0.1-2.4,0.3-4H25c1,0,1.5-0.4,1.5-1.2V166.9c0-0.8-0.5-1.2-1.5-1.2H0.3c-0.2-1.4-0.3-2.6-0.3-3.4    c0-1,0.1-2.4,0.3-4h89.4c12.5,0,24.3,2.9,35.2,8.6c10.9,5.8,20.5,13.6,28.7,23.4c8.2,9.9,14.7,21.5,19.4,34.8    c4.7,13.4,7.1,27.5,7.1,42.5C180.1,282.7,177.7,296.9,173,310.1z M138.8,208.7c-3.5-14.7-8.8-25.4-16-32.2    c-4.5-4.1-9.6-6.9-15.3-8.5c-5.7-1.5-11.6-2.3-17.7-2.3H62.3c-1.4,0-2.2,0.4-2.2,1.2v201.3c0,0.8,0.7,1.2,2.2,1.2h27.4    c6.2,0,12.1-0.7,17.7-2.2c5.7-1.4,10.7-4.2,15.3-8.3c3.7-3.3,6.9-7.3,9.6-12c2.7-4.7,4.9-10.6,6.6-17.7c1.7-7.1,3-15.6,3.9-25.6    c0.8-10,1.2-21.9,1.2-35.9C144,243,142.2,223.4,138.8,208.7z"/>
	</g>
</g>
<g>
	<path class="st0" d="M637,379c-4.1,2.1-9.1,3.1-15.1,3.1c-6,0-11.6-1-16.8-3.1c-5.2-2.1-9.9-5.4-13.9-10.2   c-4-4.7-7.2-10.9-9.6-18.5c-2.4-7.6-3.5-17-3.5-28.1v-20c0-6.8-1-12.4-3.1-17c-2.1-4.5-5-8.2-8.8-10.9c-3.8-2.8-8.3-4.7-13.6-5.9   c-5.2-1.1-11.1-1.7-17.4-1.7h-23.4v101.4c0,0.8,0.7,1.2,2.2,1.2H542v7.4h-90c-0.2,0-0.4-0.4-0.5-1.1c-0.1-0.7-0.2-1.5-0.2-2.3   c0-1,0-2,0.2-2.8c0.1-0.8,0.3-1.2,0.5-1.2h24.7c1,0,1.5-0.4,1.5-1.2V166.9c0-0.8-0.5-1.2-1.5-1.2H452c-0.2,0-0.4-0.4-0.5-1.1   c-0.1-0.7-0.2-1.5-0.2-2.3c0-1,0-2,0.2-2.8c0.1-0.8,0.3-1.2,0.5-1.2h85.4c10.5,0,19.8,1.4,28.1,4.2c8.2,2.8,15.2,6.6,21,11.4   c5.8,4.8,10.2,10.5,13.3,17c3.1,6.5,4.6,13.5,4.6,21.1c0,7.2-1.5,13.9-4.6,20c-3.1,6.2-7.1,11.6-12.2,16.2   c-5,4.6-10.8,8.3-17.3,10.9c-6.5,2.7-13.1,4-19.9,4c10.3,0,19.3,1.5,27,4.5c7.7,3,14.2,7.1,19.4,12.5c5.2,5.3,9.2,11.7,11.9,19   c2.7,7.3,4,15.3,4,23.9v27.8c0,7.8,1.5,13.3,4.5,16.3c3,3.1,7.1,4.6,12.5,4.6c3.5,0,6.2-0.4,8-1.1c1.9-0.7,3.8-2.2,5.9-4.5   c1,1,1.8,1.8,2.3,2.5c0.5,0.6,1,1.2,1.4,1.9c0.4,0.6,0.5,0.9,0.3,0.9C644.6,374.4,641.1,377,637,379z M567.8,189.4   c-1.7-6.2-4.3-11-7.6-14.5c-3.3-3.5-7.4-5.9-12.3-7.2c-4.9-1.3-10.6-2-17-2h-17c-1.4,0-2.2,0.4-2.2,1.2v92.5h23.4   c6.8,0,12.4-0.6,17-1.7c4.5-1.1,8.1-3.4,10.8-6.8c2.7-3.4,4.6-8.1,5.7-14c1.1-6,1.7-13.9,1.7-23.7   C570.4,203.5,569.5,195.6,567.8,189.4z"/>
</g>
<g>
	<path class="st0" d="M1044.3,251.8c-3.4,7.7-8.2,14.3-14.5,19.9c-6.3,5.6-13.8,9.9-22.7,12.9c-8.8,3.1-18.7,4.6-29.6,4.6   c-6,0-11.1-0.4-15.4-1.1c-4.3-0.7-8.4-1.6-12.3-2.6v82.6c0,0.8,0.6,1.2,1.8,1.2H976c0.2,0,0.3,0.4,0.3,1.2c0,0.8,0,1.7,0,2.8   c0,0.8,0,1.6,0,2.5c0,0.6-0.1,0.9-0.3,0.9h-86.3c-0.2-1.4-0.3-2.6-0.3-3.4c0-1,0.1-2.4,0.3-4h25c0.8,0,1.2-0.4,1.2-1.2V166.9   c0-0.8-0.4-1.2-1.2-1.2h-25c-0.2-1.4-0.3-2.6-0.3-3.4c0-1,0.1-2.4,0.3-4H972c12.5,0,23.6,1.8,33.3,5.4c9.7,3.6,17.7,8.5,24.2,14.6   c6.5,6.2,11.4,13.4,14.8,21.6c3.4,8.2,5.1,17.1,5.1,26.5C1049.4,235.6,1047.7,244.1,1044.3,251.8z M1012.8,198   c-2.2-7.8-5.1-14.1-8.9-18.8c-3.8-4.7-8.4-8.2-13.9-10.3c-5.4-2.2-11.5-3.2-18-3.2h-20.4c-1.2,0-1.8,0.4-1.8,1.2V277   c4.1,2.1,8.3,3.4,12.5,4c4.2,0.6,9.3,0.9,15.3,0.9c6.4,0,12-0.8,16.8-2.5c4.8-1.6,8.9-4.5,12.2-8.6c3.3-4.1,5.7-9.8,7.2-17   c1.5-7.2,2.3-16.3,2.3-27.4C1016.1,215.3,1015,205.8,1012.8,198z"/>
</g>
<line class="st1" x1="326.1" y1="158.3" x2="326.1" y2="382.1"/>
<line class="st1" x1="766" y1="158.3" x2="766" y2="382.1"/>
<polygon class="st2" points="1058.2,14.1 1057,39 1080,48 1055.5,53.5 1054.5,79.3 1040.6,58.1 1016.9,64.6 1032.6,45.9   1019.2,24.4 1042.6,34.7 "/>
<g>
	<text transform="matrix(1 0 0 1 127.0964 471.0182)" class="st3 st4 st5">DUBAI RAPID PROPERTIES</text>
</g>
</svg>
